<?xml version="1.0" encoding="UTF-8"?><svg xmlns="http://www.w3.org/2000/svg" xmlns:xlink="http://www.w3.org/1999/xlink" height="487.6" preserveAspectRatio="xMidYMid meet" version="1.0" viewBox="82.0 12.2 348.0 487.6" width="348.0" zoomAndPan="magnify"><g id="change1_1"><path d="M327.166,34.471H281.74c-2.762,0-5,2.239-5,5s2.238,5,5,5h45.426c2.762,0,5-2.239,5-5S329.928,34.471,327.166,34.471z" fill="inherit"/><path d="M252.291,34.471h-12.248c-2.761,0-5,2.239-5,5s2.239,5,5,5h12.248c2.761,0,5-2.239,5-5S255.052,34.471,252.291,34.471z" fill="inherit"/><path d="M419.169,459.266c6.178-5.326,10.101-13.2,10.101-21.978v-94.902c0-0.07-0.018-0.134-0.02-0.203 c-0.37-10.927-8.224-19.986-18.59-22.199V59.952c0-0.007-0.002-0.013-0.002-0.019V42.318c0-16.607-13.512-30.119-30.119-30.119 H228.36c-16.602,0-30.109,13.511-30.109,30.119v17.634c0,0.003,0.001,0.006,0.001,0.01v12.033 c-5.315-0.175-10.63,1.384-15.017,4.547l-54.493,39.289c-3.577-8.928-12.313-15.253-22.505-15.253 C92.873,100.578,82,111.451,82,124.815v133.914c0,6.474,2.521,12.561,7.099,17.14c4.579,4.579,10.665,7.102,17.138,7.101 c9.311,0,17.408-5.281,21.466-13.003c5.981,7.411,15.131,12.163,25.374,12.163h18.369h26.806v30.491 c0,16.604,13.508,30.111,30.111,30.111h42.685v33.293c0,4.876-4.015,8.844-8.95,8.844c-2.443,0-4.713-0.97-6.392-2.73 c-0.02-0.021-0.045-0.035-0.065-0.056c-0.018-0.018-0.03-0.04-0.048-0.058l-20.801-20.447c-4.442-4.445-10.35-6.894-16.636-6.894 c-6.285,0-12.193,2.448-16.636,6.893c-9.171,9.176-9.171,24.103,0,33.275l71.731,71.729c-2.081,3.334-3.289,7.267-3.289,11.479 c0,11.988,9.754,21.742,21.743,21.742H408.25c11.99,0,21.747-9.753,21.75-21.742C430,470.046,425.639,463.037,419.169,459.266z M120.475,258.728c0,7.853-6.387,14.241-14.238,14.241h0c-3.802,0-7.376-1.48-10.065-4.171c-2.689-2.69-4.171-6.267-4.171-10.069 V124.815c0-7.85,6.387-14.237,14.237-14.237c7.851,0,14.238,6.387,14.238,14.237V258.728z M198.252,121.141l-37.494,27.038 c-2.24,1.615-2.746,4.74-1.131,6.98c0.978,1.355,2.507,2.076,4.06,2.076c1.013,0,2.036-0.307,2.92-0.945l31.644-22.82v138.658 h-26.806h-18.369c-12.462,0-22.6-10.137-22.6-22.596c0-0.007-0.002-0.013-0.002-0.019V126.91l58.608-42.256 c2.674-1.927,5.933-2.836,9.168-2.651V121.141z M318.101,289.989v-45.51c0-12.972-10.554-23.525-23.525-23.525 c-12.973,0-23.527,10.553-23.527,23.525v45.51h-62.796V64.949H400.66v225.04H318.101z M400.66,299.989v20.033 c-4.08,0.903-7.767,2.862-10.751,5.583c-3.794-7.912-11.883-13.389-21.227-13.389c-5.986,0-11.453,2.252-15.61,5.948 c-3.729-8.393-12.047-14.397-21.445-14.397c-4.988,0-9.67,1.697-13.526,4.539v-8.316H400.66z M208.251,42.318 c0-11.093,9.021-20.119,20.109-20.119h152.179c11.094,0,20.119,9.025,20.119,20.119v12.631H208.251V42.318z M228.363,332.731 c-11.089,0-20.111-9.021-20.111-20.111v-12.631h62.796v32.742H228.363z M208.592,387.78c-5.274-5.274-5.273-13.858,0.001-19.136 c2.554-2.555,5.95-3.962,9.563-3.962s7.009,1.407,9.594,3.993l20.832,20.479c0.017,0.017,0.038,0.028,0.056,0.045 c3.567,3.652,8.334,5.669,13.46,5.669c10.448,0,18.948-8.451,18.95-18.84c0-0.001,0-0.001,0-0.002V244.479 c0-7.458,6.068-13.525,13.527-13.525c7.458,0,13.525,6.067,13.525,13.525v98.958c0,2.762,2.238,5,5,5s5-2.238,5-5v-15.512 c0-0.01,0.003-0.019,0.003-0.029c0-7.659,6.193-14.13,13.523-14.13c7.333,0,13.527,6.471,13.527,14.13v21c0,2.762,2.238,5,5,5 s5-2.238,5-5v-13.104c0-0.017,0.005-0.032,0.005-0.048c0-7.46,6.066-13.528,13.522-13.528c7.459,0,13.527,6.068,13.527,13.528 v20.998c0,2.762,2.238,5,5,5s5-2.238,5-5v-13.676c0-0.026,0.008-0.051,0.008-0.078c0-7.458,6.068-13.525,13.527-13.525 c7.458,0,13.526,6.067,13.526,13.525v94.3c0,10.488-8.533,19.021-19.021,19.021c-0.027,0-0.051,0.007-0.078,0.008H291.706 c-4.162,0-8.054,1.178-11.363,3.214L208.592,387.78z M408.25,489.801H291.706c-6.476,0-11.743-5.268-11.743-11.742 s5.268-11.742,11.743-11.742h116.548c6.477,0,11.746,5.268,11.746,11.741C419.999,484.533,414.728,489.801,408.25,489.801z" fill="inherit"/><path d="M283.129,194.119c-0.943-2.595-3.814-3.929-6.408-2.989c-2.595,0.944-3.933,3.813-2.988,6.409l3.771,10.364 c0.738,2.03,2.656,3.292,4.698,3.292c0.568,0,1.146-0.098,1.71-0.303c2.595-0.944,3.933-3.813,2.988-6.409L283.129,194.119z" fill="inherit"/><path d="M265.746,217.774l-9.552-5.518c-2.392-1.382-5.45-0.563-6.831,1.829c-1.381,2.391-0.563,5.449,1.829,6.831l9.552,5.518 c0.788,0.455,1.647,0.671,2.496,0.671c1.728,0,3.408-0.896,4.334-2.5C268.956,222.214,268.138,219.156,265.746,217.774z" fill="inherit"/><path d="M258.08,241.55l-10.865,1.916c-2.72,0.479-4.536,3.073-4.056,5.792c0.428,2.426,2.537,4.133,4.918,4.133 c0.288,0,0.581-0.025,0.874-0.077l10.865-1.916c2.72-0.479,4.535-3.073,4.056-5.792C263.393,242.887,260.804,241.072,258.08,241.55 z" fill="inherit"/><path d="M341.934,243.466l-10.863-1.916c-2.719-0.478-5.313,1.337-5.792,4.055c-0.479,2.72,1.336,5.313,4.056,5.792l10.863,1.916 c0.294,0.052,0.586,0.077,0.874,0.077c2.381,0,4.49-1.707,4.918-4.132C346.469,246.539,344.653,243.946,341.934,243.466z" fill="inherit"/><path d="M312.435,191.132c-2.598-0.945-5.464,0.393-6.409,2.988l-3.773,10.364c-0.944,2.595,0.393,5.464,2.987,6.409 c0.565,0.206,1.143,0.303,1.711,0.303c2.042,0,3.959-1.261,4.698-3.291l3.773-10.364 C316.366,194.946,315.029,192.077,312.435,191.132z" fill="inherit"/><path d="M328.99,226.434l9.551-5.518c2.392-1.382,3.21-4.44,1.828-6.831c-1.381-2.391-4.44-3.208-6.83-1.828l-9.551,5.518 c-2.392,1.382-3.21,4.44-1.828,6.831c0.926,1.604,2.606,2.5,4.334,2.5C327.343,227.105,328.203,226.888,328.99,226.434z" fill="inherit"/></g></svg>