<?xml version="1.0" encoding="UTF-8"?><svg xmlns="http://www.w3.org/2000/svg" xmlns:xlink="http://www.w3.org/1999/xlink" height="2437.3" preserveAspectRatio="xMidYMid meet" version="1.0" viewBox="315.2 27.1 1892.8 2437.3" width="1892.8" zoomAndPan="magnify"><g><g id="change1_7"><path d="M1395.1,1539.7c-102.2,0-206.8-17.5-308.2-53.1c-27.2-9.6-54.1-20.9-79.8-33.5c-79.9-33.8-177.2-119.8-181.4-123.5 c-133.9-121.5-220.7-281.3-244.6-450c-26.1-184.5,28.3-382,149.2-542C850.9,178.2,1025.7,71.4,1210,44.5 c118.9-17.4,245-9.4,374.8,23.9c142.2,36.3,338.6,114.7,466.9,282c112.3,146.4,156.3,347.5,117.6,537.7 c-40.1,197.8-152.6,388-293.5,496.5C1743.3,1486.7,1573,1539.6,1395.1,1539.7z M1334.6,69.3c-40.7,0-80.6,2.9-119.7,8.6 c-372.2,54.2-652.8,426.7-600.3,797.1c22.8,160.9,105.8,313.5,233.8,429.6c0.8,0.7,97.5,86.3,172.4,117.7l0.9,0.4 c24.6,12.1,50.4,22.9,76.5,32.1c267.4,94.1,557.5,57,757.1-96.8c134.8-103.8,242.4-286.4,281-476.5 c36.8-180.9-4.9-371.7-111.3-510.6C1902.5,211.2,1713.5,136,1576.4,101C1493.8,79.9,1412.9,69.3,1334.6,69.3z"/></g><g id="change1_1"><path d="M1391.9,1397.3c-82.7,0-167.5-14.1-249.6-43c-214.3-75.4-379-273.1-410-492.1c-21.2-149.6,22.9-309.8,121-439.5 C951,293.4,1092.7,206.8,1242.2,185c96.3-14,198.4-7.5,303.5,19.3l0,0c115.2,29.4,274.3,93,378.3,228.6 c91.1,118.9,126.8,282,95.5,436.3c-32.5,160.2-123.7,314.4-237.9,402.4C1674.2,1354.4,1536.1,1397.3,1391.9,1397.3z M1343,211.5 c-32.6,0-64.6,2.3-96,6.9c-298.5,43.5-523.4,342.2-481.4,639.1c29.3,206.9,185.2,393.8,387.9,465.1 c214.6,75.5,447.4,45.8,607.5-77.6c108.1-83.2,194.5-229.8,225.5-382.4c29.4-144.9-3.9-297.9-89.2-409.1 c-98.1-128-249.9-188.4-360-216.5C1471,220,1405.9,211.5,1343,211.5z"/></g><g><g id="change1_9"><path d="M548.1,2464.4c-34.6,0-74.8-11.9-121.3-35.8c-43.5-22.4-90-52-105-102c-4.3-14.5-5.7-30-4.2-46 c1.8-19,7.9-39.3,18.5-62.1c8.4-17.9,18.5-34.9,26.4-47.7c172.6-280.9,366-546.6,549.3-794.5c5.5-7.5,16.1-9,23.5-3.5 c7.5,5.5,9.1,16.1,3.5,23.5c-182.9,247.4-375.8,512.3-547.7,792.1c-7.4,12.1-16.9,28.1-24.6,44.4c-8.9,19.1-14,35.8-15.5,51 c-1.2,11.9-0.2,22.7,2.9,33.1c11.4,37.9,50.9,62.6,88.1,81.7c67.5,34.7,117.4,41.1,152.7,19.8c25.8-15.7,41.8-45.9,55.8-72.5 c33.9-64.2,67.7-128.4,101.5-192.6l349.2-662.8c2.5-4.8,5.8-10.3,10.5-17.8c5-7.9,15.3-10.2,23.2-5.3c7.9,5,10.2,15.3,5.3,23.2 c-4.2,6.7-7.1,11.6-9.2,15.6l-349.3,662.8c-33.8,64.2-67.6,128.4-101.5,192.6c-15.3,29-34.3,65.1-68.1,85.6 C593.4,2458.7,572.1,2464.4,548.1,2464.4z"/></g><g id="change1_3"><path d="M557.9,2190.7c-2.5,0-5-0.5-7.4-1.7l-130.8-63.8c-8.4-4.1-11.8-14.1-7.7-22.5c4.1-8.4,14.2-11.8,22.5-7.7l130.8,63.8 c8.4,4.1,11.8,14.1,7.7,22.5C570.2,2187.2,564.2,2190.7,557.9,2190.7z"/></g><g id="change1_5"><path d="M595.3,2273.7c-2,0-4.1-0.4-6.2-1.2c-16.6-6.5-32.3-12.5-47.3-18.3c-56.6-21.7-105.6-40.4-162.2-72.2 c-8.1-4.6-11-14.8-6.4-22.9c4.6-8.1,14.8-11,22.9-6.4c54.5,30.6,102.3,48.9,157.7,70.1c15.1,5.8,30.9,11.8,47.6,18.4 c8.6,3.4,12.9,13.2,9.5,21.8C608.3,2269.6,602,2273.7,595.3,2273.7z"/></g><g id="change1_2"><path d="M628.3,2355.6c-1.5,0-3.1-0.2-4.6-0.7c-115.9-33.2-234.4-91-280-114.3c-8.3-4.2-11.6-14.4-7.3-22.6 c4.2-8.3,14.4-11.5,22.6-7.3c44.7,22.9,160.8,79.5,273.9,111.9c8.9,2.6,14.1,11.9,11.5,20.8 C642.4,2350.8,635.7,2355.6,628.3,2355.6z"/></g><g id="change1_4"><path d="M582.1,2400.4c-1.9,0-3.8-0.3-5.7-1c-12.6-4.5-26.2-9.2-40.5-14.1c-67.9-23.5-152.4-52.7-210.4-88.8 c-7.9-4.9-10.3-15.3-5.4-23.2c4.9-7.9,15.3-10.3,23.2-5.4c54.8,34.2,137.3,62.7,203.6,85.6c14.4,5,28.1,9.7,40.8,14.3 c8.8,3.1,13.3,12.8,10.2,21.5C595.5,2396.2,589,2400.4,582.1,2400.4z"/></g></g><g id="change1_8"><path d="M895.8,785.4c-9,0-17.8-2.7-25.2-9.1c-19.8-17.1-13.6-45.6-11.6-55c22.4-103.2,90.3-219.1,177.4-302.4 c59.3-56.8,130-91.3,199-97.2c32.5-2.8,56.9,8.4,65.1,29.8c10.6,27.5-7.9,54.4-50.6,73.7c-133.1,60.2-241.3,172.1-297,307.1 l-0.8,1.9c-5.2,12.7-11.2,27.1-23.2,38.1C920.3,780.3,908,785.4,895.8,785.4z M1244.6,355c-2.1,0-4.3,0.1-6.4,0.3 c-61.3,5.2-124.7,36.4-178.5,87.9l0,0c-82.5,79-146.8,188.3-167.8,285.2c-3.7,17-0.4,21.5,0.7,22.4c2.3,2,9.2,0.8,13.7-3.3 c6.5-5.9,10.5-15.7,14.8-26.1l0.8-1.9c58.9-142.8,173.4-261.3,314.2-325c18.4-8.3,36.6-21.6,33-31 C1266.8,357.5,1255.7,355,1244.6,355z"/></g><g id="change1_6"><path d="M897.3,997.8c-2.5,0-5.1-0.2-7.7-0.7c-14.9-2.7-28-13.2-35.9-28.8c-6.1-12-8.2-24.7-10-35.8 c-1.8-10.8-5.9-86.7,28.3-104.4c10.8-5.6,28.4-7.5,51.1,14.9h0c17.1,16.9,21,40.9,23.8,58.3c2.7,16.7,6,37.6-0.6,57.8 C939.6,979.3,920.1,997.8,897.3,997.8z M887.2,858.2c-8.3,6.1-13.6,48.4-10.2,68.8c1.5,9.2,3.1,18.7,6.8,26.1 c3,5.9,7.7,10.2,12,10.9c6.5,1.2,15.5-6.1,18.6-15.4c4.1-12.4,1.6-28.1-0.6-41.9c-2.7-16.7-5.6-31.3-14.2-39.7l0,0 C892.3,859.9,888.3,858.4,887.2,858.2z"/></g></g></svg>