<?xml version="1.0" encoding="UTF-8"?><svg xmlns="http://www.w3.org/2000/svg" xmlns:xlink="http://www.w3.org/1999/xlink" clip-rule="evenodd" fill-rule="evenodd" height="135.1" image-rendering="optimizeQuality" preserveAspectRatio="xMidYMid meet" shape-rendering="geometricPrecision" text-rendering="geometricPrecision" version="1.0" viewBox="10.2 18.5 153.1 135.1" width="153.1" zoomAndPan="magnify"><g><g fill-rule="nonzero" id="change1_1"><path d="M65.0191 111.111c-0.2224,0 -0.4588,-0.0585 -0.6674,-0.1808 -0.6397,-0.3699 -0.8622,-1.1918 -0.4867,-1.8343l42.3716 -73.3945 0.3198 -12.1371 -10.3461 6.3481 -46.4877 80.5268c-0.3755,0.6425 -1.196,0.8623 -1.8356,0.491 -0.6536,-0.3699 -0.8622,-1.1918 -0.5007,-1.8343l46.6686 -80.8217c0.1112,-0.1933 0.2642,-0.356 0.459,-0.4728l12.7518 -7.8208c0.4171,-0.2572 0.9455,-0.2641 1.3766,-0.018 0.4171,0.2461 0.6814,0.7064 0.6675,1.1987l-0.4033 14.9531c0,0.2225 -0.0556,0.4409 -0.1668,0.6355l-42.5524 73.6893c-0.2503,0.4312 -0.6954,0.6718 -1.1682,0.6718zm-28.8688 42.5064c-1.3906,0 -2.7812,-0.3504 -4.0466,-1.0804 -4.0468,-2.3391 -5.34,-7.7179 -2.8647,-11.9939l9.915 -17.1824c0.3755,-0.6424 1.1959,-0.8621 1.8355,-0.4908 0.6398,0.3699 0.8623,1.1917 0.4868,1.8327l-9.915 17.1824c-1.7243,2.9939 -0.8899,6.7291 1.8773,8.3226 2.7673,1.5979 6.4246,0.4618 8.1489,-2.5322l14.0451 -24.3147c0.3616,-0.6424 1.182,-0.8621 1.8217,-0.4908 0.6535,0.3699 0.8761,1.1917 0.5006,1.8327l-14.0451 24.3147c-1.6826,2.9356 -4.7141,4.6001 -7.7595,4.6001z" fill="inherit"/><path d="M107.572 37.4217c-0.2364,0 -0.4589,-0.0584 -0.6813,-0.1808l-12.3486 -7.131c-0.6396,-0.3713 -0.8621,-1.1931 -0.4867,-1.8356 0.3755,-0.641 1.1959,-0.8622 1.8356,-0.4909l12.3485 7.1324c0.6398,0.3713 0.8622,1.1917 0.5007,1.8342 -0.2504,0.4311 -0.7092,0.6717 -1.1682,0.6717z" fill="inherit"/><path d="M48.5266 139.684c-0.2224,0 -0.4588,-0.057 -0.6675,-0.1807l-12.3485 -7.1394c-0.6397,-0.3727 -0.8621,-1.1931 -0.4867,-1.8356 0.3616,-0.6424 1.182,-0.8622 1.8356,-0.4895l12.3346 7.1408c0.6536,0.3712 0.8622,1.1917 0.5006,1.8341 -0.2502,0.4297 -0.7092,0.6703 -1.1681,0.6703z" fill="inherit"/><path d="M79.9264 56.7788c-0.4728,0 -0.9178,-0.2406 -1.1681,-0.6703l-13.4193 -23.2549c-2.4752,-4.2762 -1.1959,-9.6564 2.8507,-11.9926 4.0467,-2.3376 9.3448,-0.7592 11.8202,3.5168l9.3031 16.1227c0.3754,0.6425 0.1529,1.4643 -0.4867,1.8342 -0.6397,0.3713 -1.4602,0.1516 -1.8356,-0.4909l-9.3031 -16.1227c-1.7244,-2.9939 -5.3817,-4.1314 -8.1489,-2.535 -2.7674,1.5964 -3.6157,5.3301 -1.8774,8.3255l13.4193 23.2537c0.3755,0.6424 0.1529,1.4629 -0.4867,1.8342 -0.2086,0.1223 -0.445,0.1793 -0.6675,0.1793zm64.1345 96.8345c-0.2364,0 -0.4867,-0.0653 -0.6953,-0.1988l-12.7518 -7.8207c-0.1947,-0.1168 -0.3476,-0.2796 -0.4589,-0.4728l-43.1642 -74.749c-0.3616,-0.6424 -0.153,-1.463 0.5005,-1.8343 0.6398,-0.3712 1.4602,-0.1501 1.8218,0.491l42.9973 74.4542 10.3461 6.3481 -0.3199 -12.1373 -47.0996 -81.5852c-0.3754,-0.6424 -0.1529,-1.4643 0.4867,-1.8355 0.6397,-0.3713 1.4602,-0.1502 1.8356,0.4923l47.2665 81.8813c0.1113,0.1933 0.1808,0.4117 0.1808,0.6356l0.4033 14.9545c0.0139,0.4895 -0.2503,0.9511 -0.6814,1.1959 -0.1947,0.1224 -0.4311,0.1807 -0.6675,0.1807z" fill="inherit"/><path d="M131.309 145.793c-0.4589,0 -0.9039,-0.2406 -1.1542,-0.6716 -0.3754,-0.6424 -0.153,-1.4644 0.4867,-1.8343l12.3485 -7.1323c0.6536,-0.3713 1.4741,-0.1502 1.8356,0.4922 0.3755,0.6411 0.153,1.4629 -0.4866,1.8342l-12.3486 7.1311c-0.2225,0.1223 -0.445,0.1807 -0.6814,0.1807z" fill="inherit"/><path d="M72.2781 43.5389c-0.4589,0 -0.9178,-0.2405 -1.1681,-0.6702 -0.3616,-0.6425 -0.1391,-1.4644 0.5006,-1.8357l12.3486 -7.1406c0.6396,-0.3713 1.4601,-0.1517 1.8216,0.4894 0.3755,0.6424 0.1669,1.4643 -0.4867,1.8356l-12.3486 7.1407c-0.2085,0.1224 -0.4449,0.1808 -0.6674,0.1808z" fill="inherit"/><path d="M119.531 125.375l-94.8806 0c-0.2226,0 -0.4451,-0.0557 -0.6398,-0.1628l-13.155 -7.1323c-0.4312,-0.2337 -0.6953,-0.687 -0.6953,-1.1793 0,-0.4923 0.2641,-0.9456 0.6953,-1.1806l13.155 -7.1324c0.1947,-0.1057 0.4172,-0.1613 0.6398,-0.1613l86.6343 0c0.751,0 1.349,0.6008 1.349,1.3419 0,0.7412 -0.598,1.3434 -1.349,1.3434l-86.3006 0 -10.6659 5.789 10.6659 5.7891 94.5469 0c0.737,0 1.3349,0.6008 1.3349,1.3433 0,0.7412 -0.5979,1.342 -1.3349,1.342z" fill="inherit"/><path d="M154.282 125.375l-18.2863 0c-0.7371,0 -1.3351,-0.6008 -1.3351,-1.342 0,-0.7425 0.598,-1.3433 1.3351,-1.3433l18.2863 0c3.4487,0 6.2717,-2.5977 6.2717,-5.7891 0,-3.1929 -2.823,-5.789 -6.2717,-5.789l-26.5187 0c-0.7371,0 -1.3489,-0.6022 -1.3489,-1.3434 0,-0.7411 0.6118,-1.3419 1.3489,-1.3419l26.5187 0c4.9367,0 8.9555,3.8005 8.9555,8.4743 0,4.6724 -4.0188,8.4744 -8.9555,8.4744z" fill="inherit"/><path d="M24.6501 125.375c-0.751,0 -1.349,-0.6008 -1.349,-1.342l0 -14.2648c0,-0.7411 0.598,-1.3419 1.349,-1.3419 0.7369,0 1.3349,0.6008 1.3349,1.3419l0 14.2648c0,0.7412 -0.598,1.342 -1.3349,1.342z" fill="inherit"/><path d="M142.726 125.375c-0.7371,0 -1.3351,-0.5994 -1.3351,-1.342l-0.0139 -14.2634c0,-0.7412 0.598,-1.3433 1.335,-1.3433l0 0c0.7509,0 1.3489,0.5994 1.3489,1.3405l0.0139 14.2648c0,0.7412 -0.6119,1.3434 -1.3488,1.3434l0 0z" fill="inherit"/></g></g><path d="M0 0H173.397V173.397H0z" fill="none"/></svg>