<svg viewBox="0 0 302.32 345.58" class="h-12 flex flex-row" data-testid="bia-logo" xmlns="http://www.w3.org/2000/svg">
<title>B Labs Logo - Home Link</title>
<g fill="#231f20">
    <path d="m87.9 64.81h62.58c15.23 0 35.28 0 45.67 6.28a40.86 40.86 0 0 1 20.29 36c0 18.34-9.65 32.09-25.6 38.6v.49c21.27 4.34 32.86 20.27 32.86 41.51 0 25.33-18.13 49.47-52.44 49.47h-83.36zm22.94 74.09h45.94c26.08 0 36.72-9.41 36.72-27.52 0-23.89-16.9-27.26-36.72-27.26h-45.94zm0 78.91h57.53c19.8 0 32.38-12.07 32.38-30.88 0-22.45-18.13-28.73-37.47-28.73h-52.44z"></path>
    <path d="m282.39 151c0 72.38-58.75 131.06-131.24 131.06a131.06 131.06 0 1 1 0-262.11c72.49 0 131.24 58.67 131.24 131m-131.24-150.95c-83.47 0-151.15 67.59-151.15 151s67.68 151 151.15 151 151.17-67.6 151.17-151-67.68-151-151.17-151"></path><path d="m.31 333.77h301.7v19.81h-301.7z"></path><path d="m293.75 325.73a7.34 7.34 0 1 1 7.35-7.34 7.1 7.1 0 0 1 -7.35 7.34zm0-13a5.64 5.64 0 0 0 0 11.25 5.65 5.65 0 0 0 0-11.27zm-1.23 9.56h-1.68v-7.89h2.94c2 0 3.24.58 3.24 2.38a1.85 1.85 0 0 1 -1.9 2.06l2 3.45h-2l-1.8-3.29h-.8zm1.5-4.65c.75 0 1.2-.16 1.2-1s-.87-.87-1.51-.87h-1.19v1.9z"></path>
    </g>
    </svg>